<svg id="Layer_1" data-name="Layer 1" xmlns="http://www.w3.org/2000/svg" viewBox="0 0 1225.42 421.95"><defs><style>.cls-1{fill:#52abe0;}</style></defs><title>CMR-Logo-HP</title><path class="cls-1" d="M1440.44,1915.85c-12.23,5.81-24,12.6-35.92,19.1-73.43,40.67-144.66,84.77-218.51,124.48-7.78,4-15.53,8.38-23.71,11.55-8.65-16.63-16-34-23.66-51.09-7.18-16.24-14.17-32.84-22.48-48.53-2.54-4.56-5.19-9.4-8.78-13.22-1.8-1.8-4.56-3.79-7.18-2.55-3.25,1.09-4.59,5.22-6,8C1069,2019.42,1047.34,2077,1022.54,2133c-1.46,3.35-3,6.62-4.73,9.85a52.59,52.59,0,0,1-7.25-8.84c-13.27-19.66-23.25-41-35.81-61.19-4.29-6.74-8.57-14.63-14.6-19.94-3.84.54-7.27,4.17-10.19,6.53-15.26,13.7-29.75,28.28-44.39,42.64-6.52,6.13-12.69,12.65-19.11,18.89-8.05,7.61-15.7,15.63-23.62,23.38-8.21,7.77-16,15.95-24.11,23.88-10.11,9.55-19.61,19.72-29.74,29.25-30.36,30.29-60.45,60.95-89.73,92.29-8,8.64-16,17.32-23.67,26.3-1,1.32-2.44,2.79-2.76,4.45.08,3.74,1.7,8.22,5.36,9.84,3,1.14,6.68.86,9.86,1,23.32.6,46.68-.16,70,.48q134,0,268,0c7.34-.13,14.66.37,22,.27q73.48,0,147,0c15.37-.6,30.7.16,46-.58,2.88,0,5.07-3.21,6.66-5.25,7.09-10.25,12-22.36,17.37-33.59,33.24-72.73,65.6-145.87,98-219,20.52-46.56,41.16-93.09,61.13-139.9,1.85-4.7,4.25-9.32,5.52-14.2C1449.05,1915.34,1443.8,1913.93,1440.44,1915.85Zm-396.23,206.78c12.14-30.82,25.15-61.31,38.5-91.63,5.62-12.53,11.19-25.22,17.41-37.45,1.09-2.13,2.34-4.16,3.62-6.17,5.51,7.58,9.5,16.31,13.82,24.6,9.25,19,18.34,38.11,26.14,57.72,1.11,3.29,3,6.89,3,10.39-1.69,2.52-4.3,4.54-6.64,6.44-10.82,8.36-22.25,15.08-33.94,22.06-18.28,10.8-36.46,21.94-55.34,31.65-4.77,2.21-8.92,5.1-14.33,4.83C1038.37,2137.38,1041.35,2130.21,1044.21,2122.63ZM756,2313.48c-6.25,2.35-12.41,2.48-19,2.95-6.78.33-13.25.81-20-.62,3.31-5.4,7.51-9.91,11.66-14.64,11.94-13.37,24.36-26.3,36.86-39.14,14-14.29,28.09-28.58,42.48-42.51,24.59-24.4,48.92-49.08,73.58-73.41,21.41-21.11,42-42.5,65-62a69,69,0,0,1,10.53-7.7c4.22,4.13,7.16,9.6,10.27,14.64,9.92,16.75,18.92,34,27.45,51.54,3.66,7.83,7.73,15.9,10,24.19-11.11,7.19-22.59,13.82-33.91,20.68-43.37,26.06-87.14,51.46-130.57,77.43-20.69,12.3-41.13,25-61.91,37.12C771.34,2306.13,763.83,2310.58,756,2313.48Zm193.09,2.94c-25.33,1-50.72.38-76.07.55-14.42,0-28.82-.12-43.23.67-10.46.28-21.47,1.17-31.85-.1-1.49-.45-5-.43-3.85-2.88,3.08-3.26,7.36-5.5,11-8.09,29.22-19.06,59.27-36.91,89.17-54.87,27-16.08,54.12-32.1,81.61-47.39,6.3-3.45,12.74-7.11,19.39-9.8a91.27,91.27,0,0,1-5,15.26c-9.24,23.41-18.92,46.65-27.74,70.24C958,2292.12,953.65,2304.3,949.12,2316.42Zm130.94.54c-12.67,0-25.34,0-38,0-23-.54-46-.1-69-.29a58.74,58.74,0,0,1-8.56-1q16.15-40.52,33.1-80.71c5-11.55,9.85-23.22,15.58-34.42,2.16-3.75,3.72-7.79,7.81-9.78,3.64,4.26,6.49,9.47,9.49,14.26q21.58,35.73,41.55,72.44c5.28,9.81,10.63,19.66,15.27,29.79,1.3,2.89,2.46,5.66,2.46,8.89C1086.69,2317,1083.22,2316.87,1080.06,2317Zm158-.64c-21,1-42,.69-63,1.14-21.64-.79-42.21.85-63.91-2.12-3.74-4.39-7.66-8.41-10.39-13.56-20.23-35.19-39.2-71.13-57.77-107.22-3.5-6.92-7-13.87-10-21,4.66-4.55,10-8.1,15.32-11.77,19.63-13.21,40.29-25.35,60.77-37.2,10.67-6.08,21.34-12.3,32.41-17.62,3.87-1.73,8.18-3.87,12.46-4.13,2.83-.3,3.93,3.73,5.09,5.66,23,48.77,44.8,98.11,66.61,147.42,7.13,16.25,14.22,32.51,21.1,48.88a50.18,50.18,0,0,1,3.26,9.39A38.9,38.9,0,0,1,1238,2316.32ZM1412.59,1965c-11,27.08-22.65,53.91-34.27,80.73q-32.85,75.31-66.89,150.13c-14.24,31.3-28.45,62.63-43.38,93.6-1.53,3.21-3.23,6.31-5.06,9.36a29.94,29.94,0,0,1-4.3-6c-5-9.82-9.37-20.11-13.86-30.17-12.34-28.05-24.46-56.2-36.67-84.31-8.88-20.65-17.56-41.4-25.62-62.38-3.06-8.29-6.48-16.73-8.47-25.33a156.58,156.58,0,0,1,16-11.16c19.36-12.41,39.11-24.28,58.78-36.2q53.85-32.34,108.27-63.73c17.64-10.09,35.31-20.23,53.28-29.72a100.9,100.9,0,0,1,9.38-4.35C1417.91,1952.22,1415.15,1958.5,1412.59,1965Z" transform="translate(-692.83 -1915.01)"/><path d="M1509.07,2153.71c11.78,1.78,24.2,4.92,34.49,11.11q-3.63,10.3-7.22,20.62c-15.15-7.86-33.24-12.49-50.33-10.43-13,1.53-25.44,7.29-34.26,17.15-12.58,13.68-17.35,33.13-17.22,51.31-.29,16.06,2.25,32.83,10.78,46.72a50,50,0,0,0,28,22c10.14,3.31,21.27,3.15,31.81,2.38,11.72-.89,22.55-4.78,33.24-9.46,2.2,6.89,4.3,13.8,6.51,20.69a55.89,55.89,0,0,1-9.31,4.26,141.33,141.33,0,0,1-40.49,6.84c-17.79.55-35.67-2.84-50.75-12.67a73.73,73.73,0,0,1-26.51-30.52c-8.67-17.53-10.6-38.93-9.48-58.2,1.06-18.58,7-36.64,18.24-51.55a77.06,77.06,0,0,1,37.23-26.77c14.61-5,30.08-5.4,45.29-3.48Z" transform="translate(-692.83 -1915.01)"/><path d="M1581.12,2156.71c7.29,0,14.58,0,21.86,0,11,18.11,20.38,37.25,29.47,56.35,10.33,21.57,19.81,43.53,29.58,65.37,10.59-23.68,20.88-47.47,32.19-70.82,8.33-17.17,17-34.63,26.9-50.9,7.28,0,14.56,0,21.84,0q9,88.05,13,176.59c-8.11-.15-16.22,0-24.32-.07-1.9-45.06-3.35-90.38-7.73-135.28-8.16,14.41-14.8,29.49-22,44.38-6.7,13.81-12.87,27.84-19.11,41.86-3.75,8.1-7.28,16.3-10.71,24.54h-20c-6.79-15.29-13.37-30.67-20.32-45.89-10.4-21.72-19.94-43.77-31.55-64.91-4.25,44.93-5.83,90.22-7.66,135.3-8.11,0-16.23-.06-24.34.05,1.73-39.13,3.74-78.28,7.08-117.31q2.27-29.68,5.88-59.25Z" transform="translate(-692.83 -1915.01)"/><path d="M1899,2298.51c-8.46-13.7-18.15-26.48-27.89-39.27,10.9-3.81,20.73-9.62,27.49-19.21,7.55-10.33,9.79-23,8.63-35.55-.84-11-4.75-21.72-12.48-29.71-8.23-8.71-19.71-13.85-31.21-16.6-18-4.29-37.13-3.72-55.46-2.37a140.45,140.45,0,0,0-23.54,3.31q0,86.92,0,173.86,12.38,0,24.75,0v-68.75c11.25-.11,22.52.24,33.76-.23,1.68-.11,2,.09,3.08,1.32A426,426,0,0,1,1891,2333q13.65,0,27.29,0C1913,2321,1905.89,2309.64,1899,2298.51Zm-89.71-55v-66a292.76,292.76,0,0,1,29.77-.63c10.65.66,21.45,1.94,30.39,8.27a27.9,27.9,0,0,1,11.59,20.38c.83,8.11,0,18-5.3,24.65-4.93,6.36-13,9.68-20.68,11.23C1839.76,2244.29,1824.85,2243.3,1809.3,2243.47Z" transform="translate(-692.83 -1915.01)"/></svg>